<?xml version="1.0" encoding="UTF-8"?>
<!DOCTYPE svg PUBLIC "-//W3C//DTD SVG 1.1//EN" "http://www.w3.org/Graphics/SVG/1.1/DTD/svg11.dtd">
<svg xmlns="http://www.w3.org/2000/svg" version="1.1" width="1080px" height="1080px" style="shape-rendering:geometricPrecision; text-rendering:geometricPrecision; image-rendering:optimizeQuality; fill-rule:evenodd; clip-rule:evenodd" xmlns:xlink="http://www.w3.org/1999/xlink">
<g><path style="opacity:1" fill="#242938" d="M -0.5,-0.5 C 359.5,-0.5 719.5,-0.5 1079.5,-0.5C 1079.5,359.5 1079.5,719.5 1079.5,1079.5C 719.5,1079.5 359.5,1079.5 -0.5,1079.5C -0.5,719.5 -0.5,359.5 -0.5,-0.5 Z"/></g>
<g><path style="opacity:1" fill="#37aee1" d="M 737.5,132.5 C 605.5,133.833 473.5,133.833 341.5,132.5C 421.52,93.5551 505.853,79.3884 594.5,90C 644.494,96.3875 692.161,110.554 737.5,132.5 Z"/></g>
<g><path style="opacity:1" fill="#35ace1" d="M 341.5,132.5 C 473.5,133.833 605.5,133.833 737.5,132.5C 782.618,154.548 822.951,183.214 858.5,218.5C 645.833,219.833 433.167,219.833 220.5,218.5C 255.825,182.851 296.158,154.184 341.5,132.5 Z"/></g>
<g><path style="opacity:1" fill="#32aadf" d="M 220.5,218.5 C 433.167,219.833 645.833,219.833 858.5,218.5C 884.233,244.223 906.566,272.557 925.5,303.5C 668.167,304.833 410.833,304.833 153.5,303.5C 172.22,272.433 194.554,244.099 220.5,218.5 Z"/></g>
<g><path style="opacity:1" fill="#30a8de" d="M 153.5,303.5 C 410.833,304.833 668.167,304.833 925.5,303.5C 929.003,308.502 932.003,313.835 934.5,319.5C 803,320.167 671.334,320.5 539.5,320.5C 407.498,320.5 275.832,319.833 144.5,318.5C 147.137,313.216 150.137,308.216 153.5,303.5 Z"/></g>
<g><path style="opacity:1" fill="#2ea5dc" d="M 144.5,318.5 C 275.832,319.833 407.498,320.5 539.5,320.5C 671.334,320.5 803,320.167 934.5,319.5C 967.401,377.077 986.067,439.077 990.5,505.5C 905.167,505.5 819.833,505.5 734.5,505.5C 744.93,461.11 754.097,416.443 762,371.5C 762.931,363.728 762.598,356.061 761,348.5C 757.362,344.174 752.695,342.174 747,342.5C 743.765,342.582 740.598,343.082 737.5,344C 613.115,388.683 489.115,434.35 365.5,481C 344.474,489.515 323.474,498.015 302.5,506.5C 231.335,505.501 160.002,505.167 88.5,505.5C 88.5,504.167 88.5,502.833 88.5,501.5C 93.4916,436.2 112.158,375.2 144.5,318.5 Z"/></g>
<g><path style="opacity:1" fill="#fefefe" d="M 734.5,505.5 C 731.527,516.728 728.86,528.062 726.5,539.5C 714.049,591.527 701.383,643.527 688.5,695.5C 686.063,709.586 682.229,723.253 677,736.5C 668.121,745.949 657.621,748.116 645.5,743C 629.464,730.328 613.131,718.161 596.5,706.5C 578.731,692.775 560.398,679.775 541.5,667.5C 517.073,650.442 492.406,633.609 467.5,617C 466.29,615.961 465.29,614.794 464.5,613.5C 464.343,612.127 464.51,610.793 465,609.5C 518.641,561.249 571.808,512.416 624.5,463C 640.1,448.404 654.6,432.904 668,416.5C 668.49,415.207 668.657,413.873 668.5,412.5C 664.638,413.428 660.971,414.928 657.5,417C 570.97,469.541 484.97,522.874 399.5,577C 397.866,577.494 396.199,577.66 394.5,577.5C 357.488,565.774 320.488,553.941 283.5,542C 282.016,541.338 280.683,540.504 279.5,539.5C 271.81,529.93 273.143,521.763 283.5,515C 289.732,511.87 296.066,509.037 302.5,506.5C 323.474,498.015 344.474,489.515 365.5,481C 489.115,434.35 613.115,388.683 737.5,344C 740.598,343.082 743.765,342.582 747,342.5C 752.695,342.174 757.362,344.174 761,348.5C 762.598,356.061 762.931,363.728 762,371.5C 754.097,416.443 744.93,461.11 734.5,505.5 Z"/></g>
<g><path style="opacity:1" fill="#c8daea" d="M 464.5,613.5 C 460.905,649.692 457.239,686.026 453.5,722.5C 453.417,725.54 454.084,728.373 455.5,731C 455.272,731.399 454.938,731.565 454.5,731.5C 451.479,728.634 448.979,725.3 447,721.5C 444.095,712.699 440.929,704.033 437.5,695.5C 423.549,655.975 409.215,616.642 394.5,577.5C 396.199,577.66 397.866,577.494 399.5,577C 484.97,522.874 570.97,469.541 657.5,417C 660.971,414.928 664.638,413.428 668.5,412.5C 668.657,413.873 668.49,415.207 668,416.5C 654.6,432.904 640.1,448.404 624.5,463C 571.808,512.416 518.641,561.249 465,609.5C 464.51,610.793 464.343,612.127 464.5,613.5 Z"/></g>
<g><path style="opacity:1" fill="#2ba2da" d="M 88.5,501.5 C 88.5,502.833 88.5,504.167 88.5,505.5C 160.002,505.167 231.335,505.501 302.5,506.5C 296.066,509.037 289.732,511.87 283.5,515C 273.143,521.763 271.81,529.93 279.5,539.5C 215.5,539.5 151.5,539.5 87.5,539.5C 87.1713,526.656 87.5046,513.989 88.5,501.5 Z"/></g>
<g><path style="opacity:1" fill="#2ba2da" d="M 734.5,505.5 C 819.833,505.5 905.167,505.5 990.5,505.5C 991.41,516.802 991.743,528.136 991.5,539.5C 903.167,539.5 814.833,539.5 726.5,539.5C 728.86,528.062 731.527,516.728 734.5,505.5 Z"/></g>
<g><path style="opacity:1" fill="#289ed8" d="M 87.5,539.5 C 151.5,539.5 215.5,539.5 279.5,539.5C 280.683,540.504 282.016,541.338 283.5,542C 320.488,553.941 357.488,565.774 394.5,577.5C 409.215,616.642 423.549,655.975 437.5,695.5C 329.833,695.5 222.167,695.5 114.5,695.5C 96.0228,645.165 87.0228,593.165 87.5,539.5 Z"/></g>
<g><path style="opacity:1" fill="#289fd8" d="M 726.5,539.5 C 814.833,539.5 903.167,539.5 991.5,539.5C 991.853,593.391 982.52,645.391 963.5,695.5C 871.833,695.5 780.167,695.5 688.5,695.5C 701.383,643.527 714.049,591.527 726.5,539.5 Z"/></g>
<g><path style="opacity:1" fill="#a8c6d8" d="M 464.5,613.5 C 465.29,614.794 466.29,615.961 467.5,617C 492.406,633.609 517.073,650.442 541.5,667.5C 535.775,671.046 530.441,675.213 525.5,680C 515.969,688.7 506.635,697.533 497.5,706.5C 488.262,716.241 478.262,725.074 467.5,733C 465.129,733.735 462.795,734.568 460.5,735.5C 458.089,734.639 456.089,733.306 454.5,731.5C 454.938,731.565 455.272,731.399 455.5,731C 454.084,728.373 453.417,725.54 453.5,722.5C 457.239,686.026 460.905,649.692 464.5,613.5 Z"/></g>
<g><path style="opacity:1" fill="#289dd7" d="M 541.5,667.5 C 560.398,679.775 578.731,692.775 596.5,706.5C 563.5,706.5 530.5,706.5 497.5,706.5C 506.635,697.533 515.969,688.7 525.5,680C 530.441,675.213 535.775,671.046 541.5,667.5 Z"/></g>
<g><path style="opacity:1" fill="#2399d5" d="M 114.5,695.5 C 222.167,695.5 329.833,695.5 437.5,695.5C 440.929,704.033 444.095,712.699 447,721.5C 448.979,725.3 451.479,728.634 454.5,731.5C 456.089,733.306 458.089,734.639 460.5,735.5C 462.795,734.568 465.129,733.735 467.5,733C 478.262,725.074 488.262,716.241 497.5,706.5C 530.5,706.5 563.5,706.5 596.5,706.5C 613.131,718.161 629.464,730.328 645.5,743C 657.621,748.116 668.121,745.949 677,736.5C 682.229,723.253 686.063,709.586 688.5,695.5C 780.167,695.5 871.833,695.5 963.5,695.5C 941.14,757.935 906.473,812.268 859.5,858.5C 646.167,858.5 432.833,858.5 219.5,858.5C 172.225,812.335 137.225,758.002 114.5,695.5 Z"/></g>
<g><path style="opacity:1" fill="#2096d3" d="M 219.5,858.5 C 432.833,858.5 646.167,858.5 859.5,858.5C 839.387,879.206 817.387,897.539 793.5,913.5C 624.167,913.5 454.833,913.5 285.5,913.5C 261.243,898.015 239.243,879.682 219.5,858.5 Z"/></g>
<g><path style="opacity:1" fill="#1e94d2" d="M 285.5,913.5 C 454.833,913.5 624.167,913.5 793.5,913.5C 685.16,984.932 567.16,1007.43 439.5,981C 383.667,968.242 332.334,945.742 285.5,913.5 Z"/></g>
</svg>
